<?xml version="1.0" ?><svg id="icons" viewBox="0 0 48 39" xmlns="http://www.w3.org/2000/svg"><defs><style>.cls-1{fill:#f9d74a;}.cls-2{fill:#ffffff;}</style></defs><title/><g id="Icon"><path class="cls-1" d="M27.28,16.31A9.51,9.51,0,0,0,8.6,18.72a9.28,9.28,0,0,0,3.78,7.49l1,0.74,14.25-9.36Z"/><path class="cls-2" d="M46.25,26.26A7.68,7.68,0,0,0,41.37,23q0-.3,0-0.6A10.41,10.41,0,0,0,31.23,11.79a10.32,10.32,0,0,0-10,8.8,10.35,10.35,0,0,0-1.61-.13A9.41,9.41,0,0,0,10,29.58c0,5.2,3,9,7.44,9.38l22.88,0h0A7.72,7.72,0,0,0,48,31.41,8.53,8.53,0,0,0,46.25,26.26Z"/><path class="cls-1" d="M17,7.26a2,2,0,0,1-2-1.81V1.81a2,2,0,0,1,4,0V5.44A2,2,0,0,1,17,7.26Z"/><path class="cls-1" d="M5.43,20.5H1.81a2,2,0,0,1,0-4H5.43A2,2,0,0,1,5.43,20.5Z"/><path class="cls-1" d="M27.59,10.49A1.81,1.81,0,0,1,26.3,7.4l2.79-2.84a1.81,1.81,0,1,1,2.58,2.55L28.88,9.95A1.81,1.81,0,0,1,27.59,10.49Z"/><path class="cls-1" d="M8.64,10.49a1.8,1.8,0,0,1-1.29-.54L4.56,7.11A1.81,1.81,0,1,1,7.14,4.56L9.93,7.4A1.81,1.81,0,0,1,8.64,10.49Z"/></g></svg>